PathFileType	4	(X/Y/Z)	C:\Users\Basilio\Documents\Thesis Gigler\squatting_fais\c3dfiles\077\SJ_pre1\markers_experimental.trc
DataRate	CameraRate	NumFrames	NumMarkers	Units	OrigDataRate	OrigDataStartFrame	OrigNumFrames
200.000000	200.000000	4	60	mm	200.000000	585	1561
Frame#	Time	FHD			LBHD			RBHD			C7			T10			CLAV			LSHO			LUUPA			LMUPA			LDUPA			LLEP			LMEP			LRAD			LUL			LRFIN			RSHO			RUPA1			RMUPA			RDUPA			RLEP			RMEP			RRAD			RUL			RUFIN			LASI			RASI			USACR			LSACR			RSACR			LTHI1			LTHI2			LTHI3			LTHI4			LLFC			LMFC			LTIB1			LTIB2			LTIB3			LTIB4			LLMAL			LHEE			LMT1			LMT2			LMT5			RTHI			RTHI2			RTHI3			RTHI4			RLFC			RMFC			RTIB1			RTIB2			RTIB3			RTIB4			RLMAL			RMMAL			RHEE			RMT1			RMT2			RMT5			
		X1	Y1	Z1	X2	Y2	Z2	X3	Y3	Z3	X4	Y4	Z4	X5	Y5	Z5	X6	Y6	Z6	X7	Y7	Z7	X8	Y8	Z8	X9	Y9	Z9	X10	Y10	Z10	X11	Y11	Z11	X12	Y12	Z12	X13	Y13	Z13	X14	Y14	Z14	X15	Y15	Z15	X16	Y16	Z16	X17	Y17	Z17	X18	Y18	Z18	X19	Y19	Z19	X20	Y20	Z20	X21	Y21	Z21	X22	Y22	Z22	X23	Y23	Z23	X24	Y24	Z24	X25	Y25	Z25	X26	Y26	Z26	X27	Y27	Z27	X28	Y28	Z28	X29	Y29	Z29	X30	Y30	Z30	X31	Y31	Z31	X32	Y32	Z32	X33	Y33	Z33	X34	Y34	Z34	X35	Y35	Z35	X36	Y36	Z36	X37	Y37	Z37	X38	Y38	Z38	X39	Y39	Z39	X40	Y40	Z40	X41	Y41	Z41	X42	Y42	Z42	X43	Y43	Z43	X44	Y44	Z44	X45	Y45	Z45	X46	Y46	Z46	X47	Y47	Z47	X48	Y48	Z48	X49	Y49	Z49	X50	Y50	Z50	X51	Y51	Z51	X52	Y52	Z52	X53	Y53	Z53	X54	Y54	Z54	X55	Y55	Z55	X56	Y56	Z56	X57	Y57	Z57	X58	Y58	Z58	X59	Y59	Z59	X60	Y60	Z60	

586	2.925	63.93614196777345	1235.309326171875	-910.4644775390627	-78.18545532226564	1128.835327148438	-978.4393310546877	-88.29776000976564	1132.50537109375	-833.976501464844	-142.9599761962891	1076.234252929688	-905.9043579101565	-383.9383850097657	875.2819824218752	-901.750671386719	-36.78477478027344	922.4246826171877	-896.5157470703127	-20.9868392944336	973.4578247070315	-1075.836669921875	-115.4652328491211	909.8720703125002	-1262.602416992188	-128.8565979003907	864.296325683594	-1264.961547851563	-152.4377136230469	886.2158203125002	-1315.350463867188	-202.5569763183594	846.0068359375002	-1350.660522460938	-259.5126342773438	912.624206542969	-1342.388916015625	-431.3922424316407	785.408630371094	-1136.289794921875	nan	nan	nan	-425.1490478515626	714.6735839843751	-1178.029907226563	-2.850698947906495	966.4708251953127	-728.7606811523439	-114.1263961791992	903.6203613281252	-533.4279174804689	-134.5890045166016	858.1075439453127	-540.1402587890626	-161.5555725097657	875.223571777344	-489.3622436523439	-218.6214752197266	836.522399902344	-464.5060424804689	-274.8783874511719	906.484069824219	-468.8800354003907	-454.5791931152345	767.0999755859376	-650.6253051757814	-426.0314025878907	696.3690795898439	-628.4940795898439	nan	nan	nan	nan	nan	nan	nan	nan	nan	-485.4869384765626	816.4768676757815	-903.2883300781252	-510.0892639160157	807.2893676757815	-933.1926269531252	-520.0584106445314	804.4600830078127	-878.8815917968752	-411.9747619628907	609.6749267578126	-1160.804321289063	-332.3421936035157	603.5745239257814	-1190.049438476563	-306.5324401855469	642.2713012695314	-1174.254638671875	-304.9174194335938	555.3142700195314	-1209.55908203125	-167.2375030517578	497.4995422363282	-1242.819702148438	-121.2379150390625	459.1350708007814	-1125.438720703125	-189.9087677001953	280.8721313476563	-1187.235473632813	-256.4356994628907	263.1264343261719	-1245.954956054688	-225.012924194336	246.2010803222657	-1220.22705078125	-261.1694335937501	176.0910949707032	-1183.945922851563	-373.9568481445313	100.47900390625	-1213.122802734375	-428.2561035156251	48.45731735229494	-1158.89404296875	-216.8728332519532	58.95256423950197	-1218.732666015625	-229.6810760498047	43.50091171264649	-1266.697875976563	-328.0739746093751	99.56870269775393	-1136.155151367188	-326.5089721679688	548.2970581054689	-611.4123535156251	-257.7109680175782	561.9780883789064	-596.1514892578126	-240.5208892822266	589.2662963867189	-608.0405273437501	-204.5761108398438	498.2560119628907	-585.7576293945314	-168.5665893554688	459.5991821289064	-575.9833374023439	-117.6357498168946	440.6780700683595	-693.2571411132814	-171.8879089355469	323.9038696289063	-591.4489135742189	-273.8660583496094	288.5893554687501	-578.6807861328126	-235.8776550292969	264.1568908691407	-592.8035888671876	-243.3807678222657	222.5367279052735	-634.3801879882814	-394.6112365722657	98.32579040527347	-623.5673217773439	-348.9824218750001	90.87878417968751	-703.3549804687501	-453.9551086425782	50.5887794494629	-686.4270019531251	-235.8771209716797	59.45006179809572	-616.4111938476564	-250.2744598388672	61.21284866333009	-581.3615112304689	-278.0686035156251	43.0306625366211	-537.5428466796876	
587	2.93	64.11437988281251	1235.4853515625	-910.4402465820315	-78.1350555419922	1128.923095703125	-978.490417480469	-88.14241027832033	1132.69580078125	-833.9024047851565	-143.5038299560547	1076.157958984375	-905.603942871094	-383.7553405761719	875.4925537109377	-901.7864379882815	-36.61341094970704	922.5574951171877	-896.519958496094	-20.79321479797364	973.7534179687502	-1075.8310546875	-115.2977600097657	910.0756835937502	-1262.576538085938	-128.5733947753907	864.5234985351565	-1264.95654296875	-152.411865234375	886.6049804687502	-1315.373046875	-202.4711456298829	846.4309692382815	-1350.670776367188	-259.3151245117188	912.9251708984377	-1342.371215820313	-430.981658935547	785.5688476562502	-1136.38623046875	nan	nan	nan	-425.1178588867189	714.9509887695314	-1178.140625	-2.723886251449585	966.610534667969	-728.8121948242189	-113.9690093994141	903.6855468750002	-533.4123535156251	-134.4625244140625	858.1528320312502	-540.1792602539064	-161.4063568115235	875.3483886718752	-489.3869018554689	-218.4740142822266	836.5924072265627	-464.542694091797	-274.6819458007813	906.5292968750002	-468.8843078613282	-454.5410766601564	767.3833007812501	-650.6256103515626	-425.994354248047	696.5652465820314	-628.5714721679689	nan	nan	nan	nan	nan	nan	nan	nan	nan	-485.287322998047	816.7789306640627	-903.3674316406252	-509.8663635253907	807.7126464843752	-933.3214111328127	-519.8905639648439	804.6443481445315	-878.9898071289065	-411.8977661132814	609.9205322265626	-1160.766967773438	-332.2110595703126	603.7172241210939	-1190.034423828125	-306.2301940917969	642.3908691406251	-1174.259643554688	-304.9086303710938	555.4098510742189	-1209.449584960938	-167.2821197509766	497.5206909179689	-1242.724975585938	-121.2825088500977	459.1471252441407	-1125.399047851563	-189.9267883300782	280.8699340820313	-1187.212646484375	-257.4427490234376	263.4715881347657	-1246.04052734375	-225.0504455566407	246.2376403808594	-1220.17578125	-261.4938964843751	176.2631225585938	-1184.276611328125	-374.0115966796876	100.4896240234375	-1213.09228515625	-428.288787841797	48.46863174438478	-1158.908935546875	-216.9375457763672	59.06114959716798	-1218.79296875	-229.5565490722657	43.45848083496094	-1266.654541015625	-328.0787048339844	99.56372833251956	-1136.177734375	-326.5965576171876	548.5297241210939	-611.4578857421876	-257.8044738769532	562.1267089843751	-596.2831420898439	-240.6275787353516	589.3820190429689	-608.1353149414064	-204.669662475586	498.3750305175782	-585.8392944335939	-168.7008209228516	459.6506958007814	-576.0800170898439	-117.7551422119141	440.7219543457032	-693.3323364257814	-171.9538116455078	323.9743347167969	-591.5491943359376	-273.9604492187501	288.6092529296876	-578.7083740234376	-236.0361785888672	263.9573364257813	-592.8475341796876	-243.4929504394532	222.5532226562501	-634.4450683593751	-394.7083435058595	98.23822784423831	-623.5252685546876	-348.9640502929688	90.89151000976564	-703.3521728515626	-453.9722595214845	50.50648880004884	-686.4078979492189	-235.9164123535157	59.45888519287111	-616.3726196289064	-250.2754974365235	61.1986656188965	-581.3758544921876	-278.1073608398438	43.06401062011719	-537.5205078125001	
588	2.935	64.18163299560548	1235.739135742188	-910.430603027344	-77.99752807617189	1129.31201171875	-978.4191894531252	-88.00341796875001	1132.98388671875	-833.8533935546877	-143.375961303711	1076.298217773438	-905.602233886719	-383.5825195312501	875.685485839844	-901.900573730469	-36.40206146240235	922.7182617187502	-896.4984130859377	-20.56830215454102	973.9341430664065	-1075.750366210938	-115.1455154418946	910.4404907226565	-1262.697143554688	-128.4610748291016	864.8404541015627	-1264.991455078125	-152.5458221435547	886.9971313476565	-1315.405883789063	-202.427230834961	846.8311767578127	-1350.743286132813	-259.2178649902344	913.174255371094	-1342.411376953125	-430.7269897460939	785.7554321289065	-1136.4697265625	nan	nan	nan	-425.0199584960939	715.2142944335939	-1178.220703125	-2.610978603363038	966.6795043945315	-728.8224487304689	-113.8826293945313	903.6983032226565	-533.5010375976564	-134.3427886962891	858.303405761719	-540.2348022460939	-161.332275390625	875.4575805664065	-489.4634704589845	-218.388900756836	836.6031494140627	-464.537078857422	-274.5777587890626	906.6079101562502	-468.8719177246095	-454.5745239257814	767.5107421875001	-650.6834716796876	-426.0113525390626	696.7894287109376	-628.6016235351564	nan	nan	nan	nan	nan	nan	nan	nan	nan	-485.2011108398439	816.9815673828127	-903.387878417969	-509.7557983398439	808.1495361328127	-933.4100341796877	-519.6350708007814	805.1527099609377	-878.9937744140627	-411.9385986328126	610.1792602539064	-1160.813354492188	-332.0994567871094	603.8665161132814	-1190.062133789063	-306.1831359863282	642.5549926757814	-1174.25146484375	-304.0488281250001	555.2969970703126	-1209.339477539063	-166.4281005859375	497.3119201660157	-1242.561889648438	-121.3186187744141	459.2399291992189	-1125.251708984375	-189.9602661132813	280.8404235839844	-1187.152221679688	-257.4640197753907	263.4955444335938	-1246.04345703125	-225.0465240478516	246.1479949951172	-1220.19970703125	-261.5260620117188	176.2232055664063	-1184.227416992188	-373.9856567382813	100.4738922119141	-1213.132568359375	-428.259979248047	48.47677993774415	-1158.916625976563	-216.8153381347657	58.88793563842775	-1218.73095703125	-229.5031738281251	43.44367218017579	-1266.71435546875	-328.1043090820313	99.589225769043	-1136.150756835938	-326.6246337890626	548.8223266601564	-611.5136108398439	-257.9180603027344	562.2049560546876	-596.2717895507814	-240.7512664794922	589.4857177734376	-608.1664428710939	-204.8879394531251	498.4516601562501	-585.8718261718751	-168.8282623291016	459.7816162109376	-576.1224365234376	-117.8538818359375	440.7197875976564	-693.3226318359376	-172.1204376220703	323.9342651367188	-591.5817260742189	-274.0238037109376	288.6144104003907	-578.7179565429689	-236.0331726074219	264.1947021484376	-592.9654541015626	-243.5793762207032	222.5215454101563	-634.4873657226564	-394.6826477050782	98.22520446777347	-623.5224609375001	-349.0583496093751	90.85488128662111	-703.3834228515626	-453.9578552246095	50.52558898925783	-686.4104003906251	-235.9994659423829	59.35573959350587	-616.4274902343751	-250.3037261962891	61.25620269775392	-581.3541259765626	-278.0988769531251	43.06923294067384	-537.5401611328126	
589	2.94	64.2997512817383	1235.995239257813	-910.434753417969	-77.92030334472658	1129.629638671875	-978.4368896484377	-87.89060974121095	1133.2099609375	-833.8250732421877	-143.2666778564453	1076.5068359375	-905.5452270507815	-383.4302978515626	875.7915039062502	-901.963806152344	-36.30701446533204	922.880798339844	-896.5474243164065	-20.39030075073243	974.249450683594	-1075.71826171875	-114.9872207641602	910.7065429687502	-1262.636962890625	-128.4650268554688	865.2590942382815	-1265.056762695313	-152.4167938232422	887.3345336914065	-1315.42041015625	-202.2720184326172	847.1104736328127	-1350.753295898438	-259.0878601074219	913.4141235351565	-1342.422607421875	-430.6195373535157	785.9243774414065	-1136.53955078125	nan	nan	nan	-424.7752990722657	715.4296264648439	-1178.257568359375	-2.464353799819947	966.7864990234377	-728.8489990234376	-113.750717163086	903.6865234375002	-533.4999389648439	-134.24072265625	858.3179931640627	-540.2940673828126	-161.2177734375	875.4104003906252	-489.4907531738282	-218.3480224609376	836.619323730469	-464.6171875000001	-274.4832153320313	906.6262817382815	-468.8713989257814	-454.5236206054689	767.7028198242189	-650.7394409179689	-426.0323791503907	696.9956665039064	-628.6566772460939	nan	nan	nan	nan	nan	nan	nan	nan	nan	-485.0845947265626	817.4914550781252	-903.4512939453127	-509.6131896972657	808.2818603515627	-933.386657714844	-519.6623535156251	805.4756469726565	-879.1137695312502	-411.9460754394532	610.3869018554689	-1160.813110351563	-332.3260803222657	604.2460937500001	-1190.213500976563	-306.0563049316407	642.6394653320314	-1174.226928710938	-303.9468078613282	555.4101562500001	-1209.349365234375	-167.2811584472657	497.6104431152345	-1242.631591796875	-121.3979187011719	459.2085571289064	-1125.181274414063	-189.986572265625	280.8718566894532	-1187.094116210938	-257.3977355957032	263.4882507324219	-1246.00537109375	-225.0270385742188	246.1733856201172	-1220.162719726563	-261.5323791503907	176.3103332519532	-1184.103881835938	-373.2684936523438	100.1575546264649	-1213.010620117188	-428.3121032714845	48.49895477294923	-1158.869506835938	-216.9712677001954	59.09341430664064	-1218.823486328125	-229.6047363281251	43.40667343139649	-1266.60888671875	-328.0937500000001	99.59278106689456	-1136.20849609375	-326.7485046386719	548.9749145507814	-611.6288452148439	-257.9724121093751	562.3918457031251	-596.3710327148439	-240.8367462158204	589.5956420898439	-608.2896728515626	-204.981674194336	498.477996826172	-585.9704589843751	-168.976806640625	459.8371887207032	-576.1828002929689	-117.8880310058594	440.8002929687501	-693.3707885742189	-172.2346343994141	323.9223632812501	-591.6071777343751	-274.0988464355469	288.5770263671876	-578.7429199218751	-236.1787872314454	264.1368103027344	-592.9282226562501	-243.5821685791016	222.623031616211	-634.4667358398439	-394.6998291015626	98.2752380371094	-623.5150146484376	-349.0820617675782	90.84246826171876	-703.3725585937501	-454.0403137207032	50.47781372070314	-686.3689575195314	-235.9209747314454	59.52387619018556	-616.3612060546876	-250.3438720703126	61.28770828247072	-581.3433227539064	-278.1094055175782	43.04232406616212	-537.5400390625001	
